<?xml version="1.0" standalone="no"?>
<!DOCTYPE svg PUBLIC "-//W3C//DTD SVG 20010904//EN"
 "http://www.w3.org/TR/2001/REC-SVG-20010904/DTD/svg10.dtd">
<svg version="1.0" xmlns="http://www.w3.org/2000/svg"
 width="700.000000pt" height="700.000000pt" viewBox="0 0 700.000000 700.000000"
 preserveAspectRatio="xMidYMid meet">
<metadata>
Created by potrace 1.11, written by Peter Selinger 2001-2013
</metadata>
<g transform="translate(0.000000,700.000000) scale(0.100000,-0.100000)"
fill="#000000" stroke="none">
<path d="M0 3500 l0 -3500 3495 0 3495 0 0 3500 0 3500 -3495 0 -3495 0 0
-3500z m3253 1411 c175 -46 346 -156 441 -282 27 -35 68 -104 92 -152 23 -48
45 -88 49 -88 4 0 23 22 43 48 208 275 450 428 777 489 136 25 396 15 524 -20
234 -65 421 -216 525 -424 41 -82 82 -217 103 -338 17 -101 18 -185 18 -1099
l0 -990 -417 -3 -417 -2 -4 902 c-4 980 -3 955 -61 1084 -31 68 -89 131 -152
163 -101 52 -290 64 -429 27 -143 -38 -306 -145 -393 -259 l-42 -54 0 -931 0
-932 -420 0 -420 0 0 884 c0 968 0 977 -58 1101 -37 78 -78 124 -140 158 -181
99 -459 64 -654 -81 -57 -43 -136 -122 -186 -188 l-32 -42 -2 -913 -3 -914
-417 -3 -418 -2 0 1415 0 1415 418 -2 417 -3 5 -243 5 -244 50 69 c67 91 215
239 295 293 121 82 268 144 415 174 106 22 385 15 488 -13z"/>
</g>
</svg>
